<?xml version="1.0" encoding="utf-8"?>
<!-- Svg Vector Icons : http://www.onlinewebfonts.com/icon -->
<!DOCTYPE svg PUBLIC "-//W3C//DTD SVG 1.1//EN" "http://www.w3.org/Graphics/SVG/1.1/DTD/svg11.dtd">
<svg version="1.1" xmlns="http://www.w3.org/2000/svg" xmlns:xlink="http://www.w3.org/1999/xlink" x="0px" y="0px" viewBox="0 0 1000 1000" enable-background="new 0 0 1000 1000" xml:space="preserve">
<metadata> Svg Vector Icons : http://www.onlinewebfonts.com/icon </metadata>
<g fill="#008DD2" ><path d="M306.8,517.2l-37.1,193.5c0,0,222.6,46.6,251-97.7C532.5,553,472.3,482.2,306.8,517.2z"/><path d="M509.4,328c2.1-35.9-50.3-65.3-164.5-34.2L320,435.9C320,435.9,502.4,445.7,509.4,328z"/><path d="M10,12.4v975.2h980V12.4H10z M629.6,593.2c-7.9,52.3-35,164.5-224.2,191.2c0,0-176.9,18.5-228.3-28.8l80.2-403.1c0,0,10.3-36-28.8-14.4c0,0-47.7,28.4-66.2,45.8c-11.2,10.6-38.2,45.3-46.9,41.6c-19.8-8.3-28.1-56.2,12.3-95.6c41.1-40.1,129.6-97.7,232.6-111.6c57.4-7.8,187-25.1,236.3,70.5c14.4,28,5.9,85.1-30.6,117.6c-15.3,13.6-62,38.7-62,38.7S646.5,481.4,629.6,593.2z"/><path d="M520.7,613"/></g>
</svg>