<?xml version="1.0" standalone="no"?>
<!DOCTYPE svg PUBLIC "-//W3C//DTD SVG 20010904//EN"
 "http://www.w3.org/TR/2001/REC-SVG-20010904/DTD/svg10.dtd">
<svg version="1.0" xmlns="http://www.w3.org/2000/svg"
 width="67.000000pt" height="67.000000pt" viewBox="0 0 67.000000 67.000000"
 preserveAspectRatio="xMidYMid meet">

<g transform="translate(0.000000,67.000000) scale(0.100000,-0.100000)"
fill="#008DD2" stroke="none">
<path d="M259 647 c-150 -42 -241 -161 -241 -313 0 -132 68 -235 192 -293 121
-56 267 -25 360 75 63 68 84 123 85 219 0 68 -4 89 -28 137 -67 136 -230 214
-368 175z m139 -173 c74 -51 67 -155 -16 -245 l-48 -52 -47 52 c-64 72 -82
142 -52 201 21 41 53 60 100 60 22 0 51 -7 63 -16z"/>
<path d="M275 434 c-15 -16 -25 -39 -25 -57 0 -38 32 -106 64 -136 l23 -22 28
33 c59 70 70 138 30 182 -33 36 -87 36 -120 0z m96 -53 c9 -44 3 -60 -27 -67
-43 -11 -54 1 -54 56 l0 51 37 -3 c34 -3 38 -6 44 -37z"/>
<path d="M320 390 c0 -5 5 -10 10 -10 6 0 10 5 10 10 0 6 -4 10 -10 10 -5 0
-10 -4 -10 -10z"/>
<path d="M320 350 c0 -5 7 -10 16 -10 8 0 12 5 9 10 -3 6 -10 10 -16 10 -5 0
-9 -4 -9 -10z"/>
</g>
</svg>


