<?xml version="1.0" standalone="no"?>
<!DOCTYPE svg PUBLIC "-//W3C//DTD SVG 20010904//EN"
 "http://www.w3.org/TR/2001/REC-SVG-20010904/DTD/svg10.dtd">
<svg version="1.0" xmlns="http://www.w3.org/2000/svg"
 width="256.000000pt" height="256.000000pt" viewBox="0 0 256.000000 256.000000"
 preserveAspectRatio="xMidYMid meet">

<g transform="translate(0.000000,256.000000) scale(0.100000,-0.100000)"
fill="#000000" stroke="none">
<path d="M606 2321 c-56 -30 -136 -96 -136 -114 0 -5 21 12 47 37 26 26 74 60
108 76 33 16 55 30 49 30 -7 0 -37 -13 -68 -29z"/>
<path d="M718 2343 c6 -2 18 -2 25 0 6 3 1 5 -13 5 -14 0 -19 -2 -12 -5z"/>
<path d="M768 2343 c7 -3 16 -2 19 1 4 3 -2 6 -13 5 -11 0 -14 -3 -6 -6z"/>
<path d="M807 2329 c7 -7 15 -10 18 -7 3 3 -2 9 -12 12 -14 6 -15 5 -6 -5z"/>
<path d="M886 2247 c3 -10 9 -15 12 -12 3 3 0 11 -7 18 -10 9 -11 8 -5 -6z"/>
<path d="M442 2169 c-19 -30 -11 -32 11 -3 10 13 14 24 10 24 -5 0 -14 -9 -21
-21z"/>
<path d="M916 2177 c3 -10 9 -15 12 -12 3 3 0 11 -7 18 -10 9 -11 8 -5 -6z"/>
<path d="M415 2119 c-4 -6 -5 -12 -2 -15 2 -3 7 2 10 11 7 17 1 20 -8 4z"/>
<path d="M932 2115 c0 -11 4 -31 8 -45 l8 -25 0 25 c0 14 -3 34 -8 45 l-9 20
1 -20z"/>
<path d="M376 2025 c-3 -9 -6 -22 -5 -28 0 -7 5 -1 10 12 5 13 8 26 5 28 -2 2
-6 -3 -10 -12z"/>
<path d="M1243 1983 c15 -2 39 -2 55 0 15 2 2 4 -28 4 -30 0 -43 -2 -27 -4z"/>
<path d="M1133 1973 c9 -2 23 -2 30 0 6 3 -1 5 -18 5 -16 0 -22 -2 -12 -5z"/>
<path d="M1373 1973 c9 -2 23 -2 30 0 6 3 -1 5 -18 5 -16 0 -22 -2 -12 -5z"/>
<path d="M1448 1963 c7 -3 16 -2 19 1 4 3 -2 6 -13 5 -11 0 -14 -3 -6 -6z"/>
<path d="M936 1915 c-3 -9 -5 -38 -5 -63 2 -47 2 -47 9 13 8 62 7 78 -4 50z"/>
<path d="M1590 1920 c8 -5 20 -10 25 -10 6 0 3 5 -5 10 -8 5 -19 10 -25 10 -5
0 -3 -5 5 -10z"/>
<path d="M352 1895 c-1 -16 -5 -41 -8 -55 -5 -22 -4 -23 6 -7 6 9 9 34 7 55
-3 32 -4 33 -5 7z"/>
<path d="M1272 1860 c-42 -10 -99 -63 -123 -115 -27 -57 -23 -76 4 -24 29 55
98 104 161 112 42 6 135 -5 157 -18 5 -4 9 -3 9 0 0 11 -85 43 -130 48 -25 3
-60 2 -78 -3z"/>
<path d="M1735 1847 c19 -14 18 -16 -23 -26 -23 -7 -42 -13 -42 -15 0 -1 30
-3 66 -4 52 0 71 -5 88 -21 25 -23 41 -28 30 -8 -4 6 5 1 19 -12 30 -28 36
-41 9 -20 -10 8 -5 1 11 -14 15 -15 33 -42 39 -58 7 -21 13 -27 18 -18 5 7 3
21 -3 31 -10 15 -9 21 3 28 13 8 13 10 -1 10 -9 0 -28 18 -42 39 -19 28 -39
44 -74 56 -26 9 -59 22 -73 28 -43 19 -46 20 -25 4z"/>
<path d="M923 1730 c0 -30 2 -43 4 -27 2 15 2 39 0 55 -2 15 -4 2 -4 -28z"/>
<path d="M353 1690 c0 -25 2 -35 4 -22 2 12 2 32 0 45 -2 12 -4 2 -4 -23z"/>
<path d="M2036 1706 c38 -7 84 -21 102 -30 18 -9 32 -13 32 -8 0 13 -91 42
-150 47 -51 5 -50 4 16 -9z"/>
<path d="M1274 1682 c24 -26 27 -34 16 -47 -16 -19 -33 -19 -73 0 -31 16 -31
16 -11 -2 12 -10 30 -23 40 -29 10 -6 14 -15 10 -22 -10 -17 -55 -15 -90 3
-25 13 -27 13 -16 0 6 -8 27 -20 46 -27 38 -13 38 -14 23 -78 -6 -27 -7 -69
-3 -105 l8 -60 6 91 c7 104 30 160 88 219 82 84 170 87 244 8 59 -62 77 -211
38 -316 -24 -64 -77 -129 -120 -147 -17 -7 -29 -15 -26 -17 8 -8 65 27 96 59
106 113 120 321 28 432 -54 65 -139 84 -213 46 -49 -25 -50 -25 -88 2 l-32 21
29 -31z"/>
<path d="M1731 1655 c-93 -79 -76 -313 31 -410 32 -30 32 -30 -4 13 -19 23
-42 60 -51 82 l-15 40 33 -35 c18 -19 40 -35 49 -35 10 0 15 4 12 9 -3 5 2 8
12 7 23 -1 52 59 52 109 0 55 -38 127 -72 139 -23 8 -32 6 -53 -14 -14 -13
-29 -38 -34 -54 -6 -21 -9 -24 -10 -11 -3 68 50 159 98 170 35 7 89 -13 121
-46 36 -38 71 -124 80 -197 l7 -67 2 66 c1 69 8 79 50 79 9 0 26 7 37 15 17
13 16 14 -15 5 -41 -11 -81 -3 -81 16 0 12 18 19 42 16 3 -1 12 6 20 15 10 13
10 15 0 9 -8 -5 -20 1 -32 16 -18 23 -18 23 3 48 19 21 19 22 2 8 -32 -26 -73
-33 -93 -15 -55 50 -145 60 -191 22z m269 -65 c9 -17 8 -20 -14 -20 -38 0 -42
35 -4 39 4 1 12 -8 18 -19z m-245 -48 c-3 -15 3 -18 31 -17 32 2 35 -1 45 -38
6 -22 8 -59 4 -82 l-6 -42 -44 1 c-25 1 -45 -3 -45 -9 -1 -5 -10 7 -21 28 -24
46 -23 104 4 135 11 12 16 22 11 22 -5 0 -2 5 6 10 20 13 19 13 15 -8z"/>
<path d="M1763 1469 c-13 -5 -23 -17 -23 -27 0 -18 18 -42 32 -42 14 0 28 39
20 58 -5 15 -12 18 -29 11z"/>
<path d="M2180 1661 c0 -6 13 -17 28 -25 33 -17 98 -86 131 -138 12 -21 25
-38 27 -38 13 0 -65 111 -100 143 -49 44 -86 69 -86 58z"/>
<path d="M913 1605 c0 -27 2 -38 4 -22 2 15 2 37 0 50 -2 12 -4 0 -4 -28z"/>
<path d="M361 1595 c1 -19 18 -51 18 -35 0 8 -4 22 -9 30 -5 8 -9 11 -9 5z"/>
<path d="M1324 1565 c-39 -16 -51 -34 -33 -47 11 -7 10 -8 -5 -6 -36 6 -60
-115 -35 -179 16 -42 49 -73 80 -73 28 0 54 22 41 34 -4 4 0 6 8 4 23 -5 54
69 55 132 0 104 -47 162 -111 135z m55 -31 c-9 -11 -8 -14 6 -14 11 0 15 -5
11 -16 -3 -8 -2 -12 4 -9 16 10 28 -60 19 -110 -10 -55 -16 -65 -34 -65 -8 0
-24 -10 -37 -23 -13 -12 -20 -18 -15 -13 12 16 8 24 -10 22 -10 0 -17 4 -16
11 2 7 -6 10 -16 8 -32 -6 -46 86 -24 145 4 8 5 19 4 24 -1 5 5 6 13 3 8 -3
17 1 20 10 4 8 13 13 21 9 9 -3 15 0 15 10 0 9 7 14 18 12 10 -2 16 2 14 10
-1 8 2 11 8 7 8 -5 7 -11 -1 -21z"/>
<path d="M1328 1443 c-21 -5 -25 -52 -6 -71 17 -17 48 14 48 50 0 28 -6 31
-42 21z"/>
<path d="M381 1524 c0 -11 3 -14 6 -6 3 7 2 16 -1 19 -3 4 -6 -2 -5 -13z"/>
<path d="M904 1420 c0 -58 1 -81 3 -52 2 28 2 76 0 105 -2 28 -3 5 -3 -53z"/>
<path d="M391 1474 c0 -11 3 -14 6 -6 3 7 2 16 -1 19 -3 4 -6 -2 -5 -13z"/>
<path d="M2070 1475 c0 -5 5 -17 10 -25 5 -8 10 -10 10 -5 0 6 -5 17 -10 25
-5 8 -10 11 -10 5z"/>
<path d="M375 1441 c-3 -6 4 -9 15 -8 11 1 20 5 20 9 0 11 -28 10 -35 -1z"/>
<path d="M2107 1383 c35 -111 45 -186 40 -323 -4 -118 -9 -147 -37 -230 -37
-109 -98 -227 -147 -281 -25 -27 -29 -36 -16 -35 9 0 24 -12 32 -28 9 -16 24
-38 34 -48 9 -10 17 -21 17 -26 0 -4 7 -15 14 -25 13 -17 18 -17 68 -3 29 8
72 20 95 26 39 10 50 22 184 206 l141 195 -56 82 c-31 45 -56 88 -56 95 0 6
-4 12 -9 12 -5 0 -77 97 -161 215 -84 118 -154 215 -155 215 -2 0 4 -21 12
-47z m55 -682 c-15 -21 -29 -37 -31 -35 -4 4 47 74 54 74 3 0 -8 -18 -23 -39z"/>
<path d="M2385 1405 c29 -90 37 -157 32 -275 -2 -69 -1 -116 4 -105 14 37 10
243 -7 309 -9 33 -20 68 -26 76 -7 12 -8 10 -3 -5z"/>
<path d="M315 1382 c-26 -33 -37 -52 -32 -52 7 0 59 71 56 75 -2 2 -13 -9 -24
-23z"/>
<path d="M421 1380 c0 -8 4 -22 9 -30 12 -18 12 -2 0 25 -6 13 -9 15 -9 5z"/>
<path d="M254 1295 c-9 -14 -15 -27 -13 -30 3 -2 12 10 21 26 21 36 15 39 -8
4z"/>
<path d="M450 1305 c0 -5 5 -17 10 -25 5 -8 10 -10 10 -5 0 6 -5 17 -10 25 -5
8 -10 11 -10 5z"/>
<path d="M912 1285 c0 -16 2 -22 5 -12 2 9 2 23 0 30 -3 6 -5 -1 -5 -18z"/>
<path d="M1231 1302 c-1 -14 27 -72 35 -72 2 0 -2 12 -9 28 -8 15 -17 34 -20
42 -4 10 -6 11 -6 2z"/>
<path d="M471 1255 c0 -5 8 -26 19 -45 11 -19 19 -30 19 -25 0 6 -8 26 -19 45
-11 19 -19 31 -19 25z"/>
<path d="M211 1199 c-6 -18 -9 -34 -7 -36 2 -2 9 10 15 28 6 18 9 34 7 36 -2
2 -9 -10 -15 -28z"/>
<path d="M930 1213 c0 -18 40 -116 52 -128 12 -11 12 -10 -26 80 -14 33 -26
55 -26 48z"/>
<path d="M1285 1200 c10 -11 20 -20 23 -20 3 0 -3 9 -13 20 -10 11 -20 20 -23
20 -3 0 3 -9 13 -20z"/>
<path d="M186 1123 c-6 -14 -5 -15 5 -6 7 7 10 15 7 18 -3 3 -9 -2 -12 -12z"/>
<path d="M541 1115 c0 -5 6 -19 14 -29 8 -11 15 -15 15 -10 0 6 -7 19 -15 30
-8 10 -14 15 -14 9z"/>
<path d="M129 1078 c-13 -18 -31 -44 -40 -58 -18 -29 -51 -122 -45 -127 2 -3
12 20 22 49 19 60 37 91 73 130 13 15 22 30 20 33 -3 3 -16 -10 -30 -27z"/>
<path d="M171 1040 c-6 -28 -10 -70 -10 -93 2 -36 3 -34 9 18 4 33 10 75 14
93 4 17 5 32 3 32 -3 0 -10 -23 -16 -50z"/>
<path d="M683 982 c-23 -10 -48 -23 -55 -31 -11 -11 -10 -11 7 -2 11 7 47 20
80 31 36 11 50 18 35 19 -14 0 -44 -8 -67 -17z"/>
<path d="M780 996 c0 -8 51 -13 56 -5 3 5 -9 9 -25 9 -17 0 -31 -2 -31 -4z"/>
<path d="M1031 980 c14 -31 19 -36 19 -24 0 6 -7 19 -16 30 -14 18 -14 18 -3
-6z"/>
<path d="M597 943 c-4 -3 -7 -11 -7 -17 0 -6 5 -5 12 2 6 6 9 14 7 17 -3 3 -9
2 -12 -2z"/>
<path d="M1050 935 c0 -5 5 -17 10 -25 5 -8 10 -10 10 -5 0 6 -5 17 -10 25 -5
8 -10 11 -10 5z"/>
<path d="M560 915 c-8 -9 -8 -15 -2 -15 12 0 26 19 19 26 -2 2 -10 -2 -17 -11z"/>
<path d="M1553 906 c-4 -6 -14 -22 -22 -36 -9 -13 -11 -21 -5 -17 6 3 20 -3
30 -14 19 -21 124 -79 144 -79 21 0 8 21 -30 48 -26 18 -39 35 -40 50 0 34 25
37 63 8 l34 -26 15 39 16 39 -99 0 c-64 0 -102 -4 -106 -12z"/>
<path d="M491 848 c-22 -24 -41 -47 -41 -52 0 -6 3 -6 9 0 87 96 108 130 32
52z"/>
<path d="M168 853 c5 -21 7 -23 10 -9 2 10 0 22 -6 28 -6 6 -7 0 -4 -19z"/>
<path d="M1095 810 c16 -103 17 -160 1 -234 -19 -90 -15 -113 5 -34 16 62 16
229 0 273 l-11 30 5 -35z"/>
<path d="M31 814 c0 -11 3 -14 6 -6 3 7 2 16 -1 19 -3 4 -6 -2 -5 -13z"/>
<path d="M181 804 c0 -11 3 -14 6 -6 3 7 2 16 -1 19 -3 4 -6 -2 -5 -13z"/>
<path d="M33 730 c0 -30 2 -43 4 -27 2 15 2 39 0 55 -2 15 -4 2 -4 -28z"/>
<path d="M430 769 c0 -5 5 -7 10 -4 6 3 10 8 10 11 0 2 -4 4 -10 4 -5 0 -10
-5 -10 -11z"/>
<path d="M217 719 c17 -29 80 -86 86 -78 2 2 -21 28 -51 56 -43 43 -50 47 -35
22z"/>
<path d="M410 730 c-6 -11 -8 -20 -6 -20 3 0 10 9 16 20 6 11 8 20 6 20 -3 0
-10 -9 -16 -20z"/>
<path d="M381 667 c-10 -29 -15 -34 -39 -31 l-27 4 28 -11 c20 -8 27 -16 22
-27 -3 -9 -3 -13 2 -9 8 9 33 100 28 105 -2 2 -8 -12 -14 -31z"/>
<path d="M1530 696 c0 -2 7 -7 16 -10 8 -3 12 -2 9 4 -6 10 -25 14 -25 6z"/>
<path d="M41 654 c-1 -6 4 -26 10 -45 6 -19 13 -40 15 -48 3 -8 7 -12 9 -9 3
2 -4 29 -14 59 -11 30 -20 49 -20 43z"/>
<path d="M362 560 c0 -14 2 -19 5 -12 2 6 2 18 0 25 -3 6 -5 1 -5 -13z"/>
<path d="M762 539 c-36 -32 -41 -49 -7 -21 21 18 50 52 44 52 -2 0 -19 -14
-37 -31z"/>
<path d="M371 494 c5 -15 8 -28 7 -29 -2 -1 -13 -8 -25 -14 -13 -6 -23 -17
-23 -23 0 -6 8 -4 18 5 23 21 42 21 68 2 10 -8 23 -15 29 -15 5 0 -2 8 -15 17
-33 23 -49 44 -50 66 0 9 -4 17 -10 17 -6 0 -6 -9 1 -26z"/>
<path d="M108 494 c13 -24 42 -51 42 -38 0 5 -12 20 -27 34 -22 21 -25 22 -15
4z"/>
<path d="M627 459 c-37 -16 -87 -31 -112 -33 -24 -1 -48 -5 -51 -9 -12 -12 39
-8 100 8 33 9 60 14 61 13 1 -2 12 -22 25 -45 13 -24 27 -43 32 -43 4 0 -6 21
-22 47 l-30 46 28 14 c26 14 51 33 42 33 -3 0 -35 -14 -73 -31z"/>
<path d="M1883 465 c-15 -13 -22 -25 -15 -25 6 0 12 4 12 9 0 4 21 7 48 6 33
-2 35 -1 9 2 -32 4 -36 7 -26 19 18 22 3 16 -28 -11z"/>
<path d="M1052 454 c-7 -14 -8 -23 -2 -19 15 9 32 45 22 45 -5 0 -14 -12 -20
-26z"/>
<path d="M184 436 c11 -9 27 -16 35 -15 14 0 14 1 1 6 -8 3 -24 10 -35 15 -20
9 -20 9 -1 -6z"/>
<path d="M258 423 c12 -2 32 -2 45 0 12 2 2 4 -23 4 -25 0 -35 -2 -22 -4z"/>
<path d="M1000 389 l-35 -30 38 26 c33 24 43 35 34 35 -1 0 -18 -14 -37 -31z"/>
<path d="M1795 390 c-3 -6 1 -7 9 -4 18 7 21 14 7 14 -6 0 -13 -4 -16 -10z"/>
<path d="M380 365 c13 -14 26 -25 28 -25 3 0 -5 11 -18 25 -13 14 -26 25 -28
25 -3 0 5 -11 18 -25z"/>
<path d="M940 350 c-8 -5 -12 -11 -9 -14 2 -3 11 -1 19 4 8 5 12 11 9 14 -2 3
-11 1 -19 -4z"/>
<path d="M615 329 c-31 -15 -54 -19 -104 -15 -39 2 -58 0 -50 -5 36 -23 199 3
199 32 0 5 -1 9 -2 8 -2 0 -21 -9 -43 -20z"/>
<path d="M716 325 c8 -19 88 -37 116 -26 19 8 16 9 -19 9 -23 0 -55 6 -71 15
-23 11 -29 12 -26 2z"/>
<path d="M878 322 c-22 -4 -23 -18 -2 -26 8 -3 13 -2 9 3 -3 5 1 11 7 14 18 6
6 14 -14 9z"/>
<path d="M1660 305 c-14 -8 -20 -14 -14 -15 5 0 19 7 30 15 24 18 16 19 -16 0z"/>
<path d="M1048 233 c7 -3 16 -2 19 1 4 3 -2 6 -13 5 -11 0 -14 -3 -6 -6z"/>
<path d="M1098 223 c7 -3 16 -2 19 1 4 3 -2 6 -13 5 -11 0 -14 -3 -6 -6z"/>
<path d="M1428 223 c7 -3 16 -2 19 1 4 3 -2 6 -13 5 -11 0 -14 -3 -6 -6z"/>
<path d="M1158 213 c6 -2 18 -2 25 0 6 3 1 5 -13 5 -14 0 -19 -2 -12 -5z"/>
<path d="M1358 213 c6 -2 18 -2 25 0 6 3 1 5 -13 5 -14 0 -19 -2 -12 -5z"/>
</g>
</svg>
